<?xml version="1.0" encoding="UTF-8"?>
<svg version="1.1" viewBox="0 0 512 512" xmlns="http://www.w3.org/2000/svg">
 <path d="m506.96 1.314c-3.119-1.78-6.955-1.75-10.045 0.078l-183.25 108.36c-4.754 2.811-6.329 8.943-3.518 13.697 2.81 4.753 8.942 6.328 13.697 3.518l131.48-77.749-244.91 254.11-121.81-37.266 158.96-94c4.754-2.812 6.329-8.944 3.518-13.698-2.81-4.753-8.943-6.33-13.697-3.518l-178.48 105.54c-3.41 2.017-5.309 5.856-4.84 9.791s3.216 7.221 7.004 8.38l145.47 44.504 64.177 116.81c0.067 0.121 0.136 0.223 0.207 0.314 1.071 1.786 2.676 3.245 4.678 4.087 1.253 0.527 2.57 0.784 3.878 0.784 2.563 0 5.086-0.986 6.991-2.849l73.794-72.12 138.81 42.466c0.96 0.293 1.945 0.438 2.925 0.438 2.116 0 4.206-0.672 5.948-1.961 2.549-1.886 4.053-4.869 4.053-8.039v-393c0-3.591-1.926-6.907-5.045-8.686zm-235.69 327.92c-1.158 1.673-1.779 3.659-1.779 5.694v61.171l-43.823-79.765 193.92-201.21-148.32 214.11zm18.221 82.079v-62.867l48.99 14.988-48.99 47.879zm202.51-21.826-196.5-60.116 196.5-283.66v343.78z" stroke-opacity="0"/>
 <path d="m265.04 387.99c-2.4184-4.4026-4.4086-8.027-4.4228-8.0544l-0.0258-0.0497h8.8846v8.0544c0 4.6331-8e-3 8.0544-0.0195 8.0544-0.0107 0-1.9981-3.6021-4.4165-8.0047zm-15.355-27.958c-5.9956-10.913-10.901-19.852-10.901-19.865 0-0.013 6.9009-0.0236 15.335-0.0236h15.335v39.731h-8.8686zm-17.449-31.833-6.5139-11.856 1.3107-1.3585c0.72086-0.74719 30.881-32.045 67.023-69.55l65.713-68.192h8.303c4.5667 0 8.303 0.0391 8.303 0.0868s-23.602 34.155-52.449 75.793c-28.847 41.638-52.707 76.131-53.022 76.65-1.1723 1.9305-1.3467 2.7449-1.4352 6.7019l-0.08 3.5797h-30.639zm127.84-151.32c0.1661-0.17902 8.1257-8.4422 17.688-18.363l17.386-18.037h6.8419l-0.38919 0.56599c-0.21405 0.3113-5.9371 8.5745-12.718 18.363l-12.329 17.797h-16.782zm35.301-36.646c0.13622-0.14061 3.5453-3.6773 7.5757-7.8594l7.328-7.6037h1.3016c1.09 0 1.2996 3e-3 1.2892 0.0211-7e-3 0.0116-2.4559 3.5482-5.4422 7.8592l-5.4297 7.838-6.8703 4.5e-4zm14.907-15.468c4e-3 -5e-3 1.2355-1.2836 2.7363-2.8409l2.7287-2.8314 1.0757-2e-3 -0.0376 0.0544c-0.0207 0.0299-0.90648 1.3088-1.9684 2.8421l-1.9307 2.7877-1.3058 1.6e-4c-1.2289 1.6e-4 -1.3053-3.8e-4 -1.2982-9e-3zm5.6213-5.8353c0.0846-0.0876 0.92699-0.96164 1.8719-1.9424 1.9566-2.0308 1.763-1.8304 1.7662-1.8272 1e-3 1e-3 -0.60919 0.88546-1.3568 1.9647l-1.3592 1.9622-1.0759 0.00198z" fill="#0ff" stroke="#0ff" stroke-width=".022097"/>
 <path d="m164.42 347.58c-3.906-3.905-10.236-3.905-14.143 0l-93.352 93.352c-3.905 3.905-3.905 10.237 0 14.143 1.954 1.952 4.513 2.928 7.072 2.928s5.118-0.976 7.071-2.929l93.352-93.352c3.905-3.904 3.905-10.236 0-14.142z"/>
 <path d="m40.071 471.93c-3.906-3.903-10.236-3.903-14.142 1e-3l-23 23c-3.905 3.905-3.905 10.237 0 14.143 1.953 1.952 4.512 2.928 7.071 2.928s5.118-0.977 7.071-2.929l23-23c3.905-3.905 3.905-10.237 0-14.143z"/>
 <path d="m142.65 494.34c-1.859-1.86-4.439-2.93-7.069-2.93-2.641 0-5.21 1.07-7.07 2.93s-2.93 4.43-2.93 7.07c0 2.63 1.069 5.21 2.93 7.07 1.86 1.86 4.44 2.93 7.07 2.93s5.21-1.07 7.069-2.93c1.86-1.86 2.931-4.44 2.931-7.07 0-2.64-1.07-5.21-2.931-7.07z"/>
 <path d="m217.05 419.94c-3.903-3.905-10.233-3.905-14.142 0l-49.446 49.445c-3.905 3.905-3.905 10.237 0 14.142 1.953 1.953 4.512 2.929 7.071 2.929s5.118-0.977 7.071-2.929l49.446-49.445c3.905-3.905 3.905-10.237 0-14.142z"/>
 <path d="m387.7 416.14c-3.906-3.904-10.236-3.904-14.142 0l-49.58 49.58c-3.905 3.905-3.905 10.237 0 14.143 1.953 1.952 4.512 2.929 7.071 2.929s5.118-0.977 7.071-2.929l49.58-49.58c3.905-3.905 3.905-10.237 0-14.143z"/>
 <path d="m283.5 136.31c-1.86-1.86-4.44-2.93-7.07-2.93s-5.21 1.07-7.07 2.93c-1.859 1.86-2.93 4.44-2.93 7.08 0 2.63 1.07 5.2 2.93 7.06 1.86 1.87 4.44 2.93 7.07 2.93s5.21-1.06 7.07-2.93c1.859-1.86 2.93-4.43 2.93-7.06 0-2.64-1.07-5.22-2.93-7.08z"/>
</svg>
