<?xml version="1.0" encoding="UTF-8"?>
<svg version="1.1" viewBox="0 0 495.31 495.31" xmlns="http://www.w3.org/2000/svg">
 <path d="m454.21 33.394h-413.12c-22.666 0-41.096 18.432-41.096 41.089v241.4c0 22.652 18.43 41.085 41.096 41.085h135.6v25.517c-26.117 2.82-46.605 24.748-46.605 51.604v15.302c0 6.912 5.609 12.522 12.522 12.522h210.08c6.912 0 12.522-5.609 12.522-12.522v-15.302c0-26.855-20.486-48.783-46.605-51.604v-25.517h135.6c22.663 0 41.096-18.433 41.096-41.085v-241.4c-1e-3 -22.657-18.434-41.089-41.097-41.089zm-114.04 400.7v2.779h-185.04v-2.779c0-14.961 12.166-27.122 27.123-27.122h130.79c14.958 0 27.123 12.161 27.123 27.122zm121.74-118.21c0 4.247-3.458 7.695-7.705 7.695h-413.12c-4.251 0-7.705-3.448-7.705-7.695v-241.4c0-4.247 3.454-7.699 7.705-7.699h413.12c4.247 0 7.705 3.452 7.705 7.699v241.4z"/>
 <path d="m172.52 213.62h-47.298c-4.419 0-7.997 3.578-7.997 7.997v47.299c0 4.426 3.578 8.004 7.997 8.004h47.298c4.426 0 8.004-3.578 8.004-8.004v-47.299c0-4.419-3.578-7.997-8.004-7.997z"/>
 <path d="m272.7 213.62h-47.298c-4.419 0-7.997 3.578-7.997 7.997v47.299c0 4.426 3.578 8.004 7.997 8.004h47.298c4.43 0 8.008-3.578 8.008-8.004v-47.299c0-4.419-3.578-7.997-8.008-7.997z"/>
 <path d="m172.52 113.44h-47.298c-4.419 0-7.997 3.579-7.997 7.997v47.298c0 4.426 3.578 8.008 7.997 8.008h47.298c4.426 0 8.004-3.582 8.004-8.008v-47.298c0-4.418-3.578-7.997-8.004-7.997z"/>
 <path d="m272.7 113.44h-47.298c-4.419 0-7.997 3.579-7.997 7.997v47.298c0 4.426 3.578 8.008 7.997 8.008h47.298c4.43 0 8.008-3.582 8.008-8.008v-47.298c0-4.418-3.578-7.997-8.008-7.997z"/>
 <path d="m372.87 213.62h-47.298c-4.419 0-7.997 3.578-7.997 7.997v47.299c0 4.426 3.578 8.004 7.997 8.004h47.298c4.426 0 8.004-3.578 8.004-8.004v-47.299c0-4.419-3.578-7.997-8.004-7.997z"/>
</svg>
