<?xml version="1.0" encoding="UTF-8"?>
<svg viewBox="0 -64 512 512" xmlns="http://www.w3.org/2000/svg">
  <path d="m453.33 0h-394.66c-32.363 0-58.668 26.305-58.668 58.668v266.66c0 32.363 26.305 58.668 58.668 58.668h394.66c32.363 0 58.668-26.305 58.668-58.668v-266.66c0-32.363-26.305-58.668-58.668-58.668zm-293.33 85.332c29.398 0 53.332 23.938 53.332 53.336 0 29.395-23.934 53.332-53.332 53.332s-53.332-23.938-53.332-53.332c0-29.398 23.934-53.336 53.332-53.336zm96 197.34c0 8.832-7.168 16-16 16h-160c-8.832 0-16-7.168-16-16v-10.668c0-32.363 26.305-58.668 58.668-58.668h74.664c32.363 0 58.668 26.305 58.668 58.668zm176 16h-117.33c-8.832 0-16-7.168-16-16s7.168-16 16-16h117.33c8.832 0 16 7.168 16 16s-7.168 16-16 16zm0-85.336h-117.33c-8.832 0-16-7.168-16-16s7.168-16 16-16h117.33c8.832 0 16 7.168 16 16s-7.168 16-16 16zm0-85.332h-117.33c-8.832 0-16-7.168-16-16s7.168-16 16-16h117.33c8.832 0 16 7.168 16 16s-7.168 16-16 16z"/>
</svg>
