<svg class="icon" height="17px" viewBox="350 350 367 367" version="1.1" xmlns="http://www.w3.org/2000/svg" width="17px" xmlns:xlink="http://www.w3.org/1999/xlink" preserveAspectRatio="xMidYMid meet" ><rect id="svgEditorBackground" x="0" y="0" width="1024" height="1024" style="fill:none;stroke:none;"/><path d="M532.24899,619.305389h-126.00956200000007c-0.7129929999999831,0,-2.0914450000000215,-0.7129929999999831,-2.8044380000000046,-1.3784520000000384c0,-0.7129929999999831,-0.7129929999999831,-1.3784520000000384,-0.7129919999999856,-2.8044380000000046c5.561342000000025,-55.851089,52.333658000000014,-97.67998899999998,108.18474700000002,-97.67998899999998c9.221370999999976,0,18.205077999999958,1.1407880000000432,26.760988999999995,3.327299000000039c3.279765999999995,-3.897693000000004,6.89226199999996,-7.5101889999999685,10.789954999999964,-10.78995500000002c-11.835677000000032,-3.7550939999999855,-24.479413000000022,-5.799007000000017,-37.550944000000015,-5.79900600000002c-63.50387599999999,0,-115.837534,47.437775999999985,-122.11187000000001,110.27619100000004c-0.7129929999999831,4.895883000000026,0.7129929999999831,9.791765000000055,4.182889999999986,13.261662999999999c3.469897000000003,3.4698969999999463,8.36578000000003,5.561341999999968,13.261662999999999,5.561342999999965h137.60757600000005c-4.373020999999994,-4.230422999999973,-8.270713999999998,-8.888641000000007,-11.598014000000035,-13.974655999999982ZM510.954277,488.114747c36.22002500000002,0,65.59532099999996,-29.37529599999999,65.59532099999996,-65.59532100000001s-29.37529600000005,-65.59532100000001,-65.59532100000001,-65.59532100000001s-65.59532100000001,29.37529599999999,-65.59532000000002,65.59532100000001s29.327763000000004,65.59532100000001,65.59532000000002,65.59532100000001ZM474.639187,386.204336c9.696700000000021,-9.696700000000021,22.578100000000006,-15.020377999999994,36.31509,-15.020377999999994s26.61839100000003,5.323677999999973,36.315090999999995,15.020377999999994c9.696699999999964,9.696700000000021,15.02037800000005,22.578100000000006,15.02037800000005,36.31509c0,13.689458000000002,-5.323677999999973,26.618390999999974,-15.02037800000005,36.315090999999995c-9.696699999999964,9.696700000000021,-22.57809999999995,15.020377999999994,-36.315090999999995,15.020377999999994s-26.618390999999974,-5.323677999999973,-36.31509,-15.020377999999994c-9.696700000000021,-9.696700000000021,-15.020377999999994,-22.578100000000006,-15.020377999999994,-36.315090999999995c0,-13.689458000000002,5.323677999999973,-26.618390999999974,15.020377999999994,-36.31509ZM658.971545,566.7816c4.182890000000043,-2.0914450000000215,6.939795000000004,-5.561341999999968,8.31824800000004,-10.409692999999947c0.7129929999999831,-4.182890000000043,0,-9.031240000000025,-2.091446000000019,-13.166597000000024l-5.561341999999968,-9.696698999999967c-4.848349999999982,-8.318247000000042,-15.258042000000046,-11.788144999999986,-24.289281999999957,-6.226803000000018c-2.7569049999999606,1.3784520000000384,-6.939795000000004,0.7129929999999831,-9.031240000000025,-1.3784520000000384c-0.7129929999999831,-0.7129929999999831,-2.0914450000000215,-2.7569049999999606,-2.0914450000000215,-5.561341999999968c0,-9.696700000000021,-7.652786999999989,-17.34948700000001,-17.349486999999954,-17.34948700000001h-9.696698999999967c-9.696699999999964,0,-17.349486999999954,7.652786999999989,-17.349486999999954,18.062478999999996c0,4.848349999999982,-4.182890000000043,7.652786999999989,-7.652787999999987,7.652787999999987c-1.3784520000000384,0,-2.7569049999999606,-0.7129929999999831,-4.182890000000043,-1.378453000000036c-8.318247000000042,-4.848349999999982,-19.440931999999975,-2.0914450000000215,-24.289281999999957,6.226803000000018l-5.561341999999968,9.696698999999967c-2.7569049999999606,4.182890000000043,-2.7569049999999606,8.318247000000042,-2.0914450000000215,13.166597000000024c0.7129929999999831,4.848349999999982,4.182890000000043,8.318247000000042,8.318247000000042,11.122685000000047c2.7569049999999606,1.3784520000000384,3.4698969999999463,4.848349999999982,3.4698969999999463,6.226802000000021c0,1.3784520000000384,-0.7129929999999831,4.848349999999982,-4.182890000000043,6.939795000000004c-4.182890000000043,2.0914450000000215,-6.939795000000004,5.561341999999968,-8.318247000000042,10.40969199999995c-0.7129929999999831,4.182890000000043,0,9.031240000000025,2.0914450000000215,13.166597000000024l5.561342999999965,9.696699999999964c4.848349999999982,8.318247000000042,15.258042000000046,11.788144999999986,24.28928099999996,6.226802000000021c4.182890000000043,-2.7569049999999606,11.122685000000047,0,11.122685000000047,6.939795000000004c0,9.696699999999964,7.652786999999989,17.349486999999954,17.349486999999954,17.349486999999954h11.122685000000047c9.696699999999964,0,18.06248000000005,-7.652786999999989,17.349486999999954,-17.349486999999954c0,-4.848349999999982,4.182890000000043,-7.652786999999989,7.652787999999987,-7.652786999999989c1.3784520000000384,0,2.7569049999999606,0.7129929999999831,4.182890000000043,1.3784520000000384c2.7569049999999606,1.3784520000000384,6.226802000000021,2.0914450000000215,9.031240000000025,2.0914450000000215c6.226802000000021,0,11.788144999999986,-3.4698969999999463,15.258042000000046,-9.031240000000025l4.182890000000043,-9.696698999999967c2.7569049999999606,-4.182890000000043,3.4698969999999463,-8.318247000000042,2.0914450000000215,-13.166598000000022c-0.7129929999999831,-4.848349999999982,-4.182890000000043,-8.318247000000042,-8.318247000000042,-11.12268400000005c-2.7569049999999606,-1.3784520000000384,-3.4698969999999463,-4.848349999999982,-3.4698979999999437,-6.226803000000018c-0.04753300000004401,-1.4259849999999687,0.6654600000000528,-4.895883000000026,4.135356999999999,-6.939794000000006ZM653.410203,598.010676l-5.561342999999965,9.696699999999964c-1.3784520000000384,2.0914450000000215,-2.7569049999999606,2.7569049999999606,-5.561341999999968,1.3784520000000384c-2.7569049999999606,-2.0914450000000215,-6.939795000000004,-2.7569049999999606,-10.40969199999995,-2.756903999999963c-11.788144999999986,0,-21.532376999999997,9.696699999999964,-21.532376999999997,21.532376999999997c0,2.0914450000000215,-1.3784520000000384,3.4698969999999463,-3.4698979999999437,3.4698969999999463h-11.122685000000047c-2.0914450000000215,0,-3.4698969999999463,-1.3784520000000384,-3.4698969999999463,-4.182890000000043c0,-11.788144999999872,-9.696699999999964,-21.532376999999997,-21.532376999999997,-21.532376999999997c-3.4698969999999463,0,-7.652786999999989,0.7129929999999831,-9.031240000000025,2.7569049999999606c-1.3784520000000384,0.7129929999999831,-4.182890000000043,0.7129929999999831,-4.848349999999982,-1.378453000000036l-5.561341999999968,-9.696698999999967c-0.7129929999999831,-0.7129929999999831,-0.7129929999999831,-2.0914450000000215,-0.7129929999999831,-2.7569049999999606c0,-1.3784520000000384,0.7129929999999831,-2.0914450000000215,2.0914450000000215,-2.7569049999999606c6.226802000000021,-4.182890000000043,10.40969199999995,-11.122685000000047,10.40969199999995,-18.727938999999992c0,-7.652786999999989,-4.182890000000043,-14.592581999999993,-11.12268400000005,-18.72793999999999c-1.3784520000000384,0,-2.0914450000000215,-1.3784520000000384,-2.0914450000000215,-2.0914450000000215c0,-0.7129929999999831,0,-2.0914450000000215,0.7129919999999856,-2.7569049999999606l5.561342999999965,-9.696698999999967c1.3784520000000384,-2.0914450000000215,2.7569049999999606,-2.7569049999999606,5.561341999999968,-1.378453000000036c2.7569049999999606,2.0914450000000215,6.939795000000004,2.7569049999999606,10.40969199999995,2.7569049999999606c11.788144999999986,0,21.532376999999997,-9.696699999999964,21.532376999999997,-21.532376999999997c0,-2.0914450000000215,1.3784520000000384,-3.4698969999999463,3.4698979999999437,-3.4698969999999463h11.122685000000047c2.0914450000000215,0,3.4698969999999463,1.3784520000000384,3.4698969999999463,4.182890000000043c0,5.561341999999968,2.0914450000000215,11.122685000000047,6.226802000000021,15.258042000000046c6.226802000000021,6.226802000000021,16.63649399999997,7.652786999999989,25.667734999999993,2.756903999999963c1.3784520000000384,-0.7129929999999831,4.182890000000043,0,4.848348999999985,1.378453000000036l4.182890000000043,10.40969199999995c1.3784520000000384,2.0914450000000215,0.7129929999999831,4.182890000000043,-1.3784520000000384,5.561342999999965c-6.226802000000021,4.182890000000043,-10.40969199999995,11.122685000000047,-10.40969199999995,18.727938999999992s4.182890000000043,14.592581999999993,11.122685000000047,18.72793999999999c1.3784520000000384,0,2.0914450000000215,1.3784520000000384,2.0914450000000215,2.0914450000000215c0,0.6654600000000528,0,2.0439119999999775,-0.6654600000000528,2.756903999999963ZM601.361742,550.810565c-12.501136999999972,0,-22.910830000000033,10.40969199999995,-22.910830000000033,22.910829000000035c0,12.501136999999972,10.40969199999995,22.910830000000033,22.910830000000033,22.910830000000033c13.166597000000024,0,22.910830000000033,-10.40969199999995,22.910829000000035,-22.910830000000033c0,-12.501136999999972,-10.40969199999995,-22.910830000000033,-22.910829000000035,-22.910829000000035ZM601.361742,582.039642c-4.848349999999982,0,-9.031240000000025,-4.182890000000043,-9.031240000000025,-9.031240000000025s4.182890000000043,-9.031240000000025,9.031240000000025,-9.031240000000025c5.561341999999968,0,9.031240000000025,4.182890000000043,9.031239000000028,9.031240000000025s-4.182890000000043,9.031240000000025,-9.031239000000028,9.031240000000025Z" style="stroke:aqua;fill:aqua;"/></svg>