<?xml version="1.0" encoding="UTF-8" standalone="no"?>

<svg xmlns:svg="http://www.w3.org/2000/svg" 
   xmlns="http://www.w3.org/2000/svg" version="1.1" id="Capa_1" x="0px" y="0px" viewBox="0 0 512 512" style="enable-background:new 0 0 512 512;" xml:space="preserve">
   <g id="g6">
      <g id="g4">
         <path d="M506.955,1.314c-3.119-1.78-6.955-1.75-10.045,0.078L313.656,109.756c-4.754,2.811-6.329,8.943-3.518,13.697    c2.81,4.753,8.942,6.328,13.697,3.518l131.482-77.749L210.411,303.335L88.603,266.069l158.965-94    c4.754-2.812,6.329-8.944,3.518-13.698c-2.81-4.753-8.943-6.33-13.697-3.518L58.91,260.392c-3.41,2.017-5.309,5.856-4.84,9.791    s3.216,7.221,7.004,8.38l145.469,44.504L270.72,439.88c0.067,0.121,0.136,0.223,0.207,0.314c1.071,1.786,2.676,3.245,4.678,4.087    c1.253,0.527,2.57,0.784,3.878,0.784c2.563,0,5.086-0.986,6.991-2.849l73.794-72.12l138.806,42.466    c0.96,0.293,1.945,0.438,2.925,0.438c2.116,0,4.206-0.672,5.948-1.961C510.496,409.153,512,406.17,512,403V10    C512,6.409,510.074,3.093,506.955,1.314z M271.265,329.23c-1.158,1.673-1.779,3.659-1.779,5.694v61.171l-43.823-79.765    l193.921-201.21L271.265,329.23z M289.486,411.309v-62.867l48.99,14.988L289.486,411.309z M492,389.483l-196.499-60.116    L492,45.704V389.483z" id="path2" style="stroke:#00b4b4;stroke-opacity:0" />
         <path id="path2489" style="fill:#00ffff;fill-opacity:1;stroke:#00ffff;stroke-width:0.02209709;stroke-opacity:1" d="m 265.04185,387.99274 c -2.41835,-4.40257 -4.40862,-8.02704 -4.42281,-8.05439 l -0.0258,-0.0497 h 4.44229 4.4423 v 8.05439 c 0,4.6331 -0.008,8.05439 -0.0195,8.05439 -0.0107,0 -1.99813,-3.6021 -4.41649,-8.00467 z m -15.3547,-27.95836 c -5.9956,-10.91292 -10.90109,-19.8523 -10.90109,-19.86528 0,-0.013 6.90092,-0.0236 15.33538,-0.0236 h 15.33537 v 19.86528 19.86528 h -4.43428 -4.43429 z m -17.44877,-31.83265 -6.51394,-11.85554 1.31066,-1.35852 c 0.72086,-0.74719 30.88136,-32.04475 67.02333,-69.55013 l 65.71267,-68.19161 h 8.30301 c 4.56666,0 8.30301,0.0391 8.30301,0.0868 0,0.0477 -23.60205,34.15458 -52.449,75.793 -28.84695,41.63843 -52.70687,76.13088 -53.02204,76.64989 -1.17233,1.93054 -1.34671,2.74487 -1.43515,6.70193 l -0.08,3.57973 h -15.3193 -15.3193 z m 127.8443,-151.32061 c 0.1661,-0.17902 8.12567,-8.44223 17.68794,-18.36268 l 17.38595,-18.03718 h 3.42095 3.42095 l -0.38919,0.56599 c -0.21405,0.3113 -5.93712,8.5745 -12.71792,18.36268 l -12.32875,17.79669 h -8.39096 -8.39097 z m 35.30084,-36.64645 c 0.13622,-0.14061 3.54529,-3.67733 7.57571,-7.85937 l 7.32804,-7.60372 h 1.30164 c 1.09002,0 1.29961,0.003 1.28915,0.0211 -0.007,0.0116 -2.45586,3.54825 -5.44219,7.85915 l -5.42968,7.83801 -3.43517,2.3e-4 -3.43517,2.2e-4 z m 14.90652,-15.4675 c 0.004,-0.005 1.23551,-1.28356 2.73631,-2.84086 l 2.72872,-2.83145 0.53785,-10e-4 0.53786,-0.001 -0.0376,0.0544 c -0.0207,0.0299 -0.90648,1.30885 -1.96838,2.8421 l -1.93073,2.78772 -1.30579,1.6e-4 c -1.22894,1.6e-4 -1.30534,-3.8e-4 -1.2982,-0.009 z m 5.6213,-5.83527 c 0.0846,-0.0876 0.92699,-0.96164 1.87193,-1.9424 1.95659,-2.03076 1.76295,-1.83043 1.76615,-1.82724 10e-4,10e-4 -0.60919,0.88546 -1.35678,1.96466 l -1.35925,1.96219 -0.53796,9.9e-4 -0.53795,9.9e-4 z" />
      </g>
   </g>
   <g id="g12">
      <g id="g10">
         <path d="M164.423,347.577c-3.906-3.905-10.236-3.905-14.143,0l-93.352,93.352c-3.905,3.905-3.905,10.237,0,14.143    C58.882,457.024,61.441,458,64,458s5.118-0.976,7.071-2.929l93.352-93.352C168.328,357.815,168.328,351.483,164.423,347.577z" id="path8" />
      </g>
   </g>
   <g id="g18">
      <g id="g16">
         <path d="M40.071,471.928c-3.906-3.903-10.236-3.903-14.142,0.001l-23,23c-3.905,3.905-3.905,10.237,0,14.143    C4.882,511.024,7.441,512,10,512s5.118-0.977,7.071-2.929l23-23C43.976,482.166,43.976,475.834,40.071,471.928z" id="path14" />
      </g>
   </g>
   <g id="g24">
      <g id="g22">
         <path d="M142.649,494.34c-1.859-1.86-4.439-2.93-7.069-2.93c-2.641,0-5.21,1.07-7.07,2.93c-1.86,1.86-2.93,4.43-2.93,7.07    c0,2.63,1.069,5.21,2.93,7.07c1.86,1.86,4.44,2.93,7.07,2.93s5.21-1.07,7.069-2.93c1.86-1.86,2.931-4.44,2.931-7.07    C145.58,498.77,144.51,496.2,142.649,494.34z" id="path20" />
      </g>
   </g>
   <g id="g30">
      <g id="g28">
         <path d="M217.051,419.935c-3.903-3.905-10.233-3.905-14.142,0l-49.446,49.445c-3.905,3.905-3.905,10.237,0,14.142    c1.953,1.953,4.512,2.929,7.071,2.929s5.118-0.977,7.071-2.929l49.446-49.445C220.956,430.172,220.956,423.84,217.051,419.935z" id="path26" />
      </g>
   </g>
   <g id="g36">
      <g id="g34">
         <path d="M387.704,416.139c-3.906-3.904-10.236-3.904-14.142,0l-49.58,49.58c-3.905,3.905-3.905,10.237,0,14.143    c1.953,1.952,4.512,2.929,7.071,2.929s5.118-0.977,7.071-2.929l49.58-49.58C391.609,426.377,391.609,420.045,387.704,416.139z" id="path32" />
      </g>
   </g>
   <g id="g42">
      <g id="g40">
         <path d="M283.5,136.31c-1.86-1.86-4.44-2.93-7.07-2.93s-5.21,1.07-7.07,2.93c-1.859,1.86-2.93,4.44-2.93,7.08    c0,2.63,1.07,5.2,2.93,7.06c1.86,1.87,4.44,2.93,7.07,2.93s5.21-1.06,7.07-2.93c1.859-1.86,2.93-4.43,2.93-7.06    C286.43,140.75,285.36,138.17,283.5,136.31z" id="path38" />
      </g>
   </g>
</svg>