<?xml version="1.0" encoding="UTF-8" standalone="no"?>
<svg xmlns="http://www.w3.org/2000/svg" class="icon" height="20" width="20" viewBox="350 350 431.76471 431.76471" version="1.1">
   <path fill="aqua" d="M 572.32448,743.94071 H 377.27843 c -1.10361,0 -3.23725,-1.0705 -4.3409,-2.06962 0,-1.0705 -1.1036,-2.06963 -1.1036,-4.2106 8.60821,-83.85512 81.00555,-146.65728 167.4556,-146.65728 14.27344,0 28.17905,1.7128 41.42246,4.99563 5.07662,-5.85201 10.66829,-11.27583 16.7014,-16.2001 -18.32005,-5.63791 -37.89087,-8.70665 -58.12386,-8.70665 -98.29556,0 -179.30111,71.22332 -189.01293,165.56928 -1.10364,7.35069 1.10361,14.7014 6.47456,19.91113 5.37092,5.20971 12.94911,8.34981 20.52727,8.34981 h 212.99823 c -6.76884,-6.35157 -12.80196,-13.34544 -17.95218,-20.9816 z M 539.36311,546.97036 c 56.06375,0 101.53281,-44.10424 101.53281,-98.48517 C 640.89592,394.10424 595.42686,350 539.36311,350 c -56.0638,0 -101.53284,44.10424 -101.53284,98.48519 0,54.38093 45.39548,98.48517 101.53284,98.48517 z M 483.15217,393.96152 c 15.00921,-14.55868 34.94789,-22.55167 56.21094,-22.55167 21.26302,0 41.20172,7.99299 56.21093,22.55167 15.0092,14.55867 23.24955,33.89887 23.24955,54.52367 0,20.55341 -8.24035,39.96499 -23.24955,54.52368 -15.00921,14.55868 -34.94791,22.55166 -56.21093,22.55166 -21.26305,0 -41.20173,-7.99298 -56.21094,-22.55166 -15.00921,-14.55869 -23.24955,-33.89889 -23.24955,-54.52368 0,-20.55344 8.24034,-39.965 23.24955,-54.52367 z M 768.47414,665.0812 c 6.47457,-3.14011 10.74188,-8.34982 12.87556,-15.62916 1.10361,-6.28023 0,-13.55956 -3.2373,-19.76841 l -8.60822,-14.55868 c -7.50459,-12.48906 -23.6174,-17.69878 -37.59657,-9.34895 -4.26733,2.06961 -10.74188,1.07049 -13.97916,-2.06961 -1.10363,-1.0705 -3.23726,-4.13924 -3.23726,-8.34985 0,-14.55867 -11.84552,-26.04859 -26.85473,-26.04859 h -15.00918 c -15.00921,0 -26.85471,11.48992 -26.85471,27.1191 0,7.27934 -6.47455,11.48992 -11.84549,11.48992 -2.13365,0 -4.26733,-1.07048 -6.47456,-2.06961 -12.87555,-7.27934 -30.09198,-3.14009 -37.59658,9.34895 l -8.60821,14.55869 c -4.26733,6.28021 -4.26733,12.48906 -3.23728,19.7684 1.10361,7.27934 6.47455,12.48906 12.87553,16.69966 4.26732,2.06962 5.37093,7.27934 5.37093,9.34896 0,2.06961 -1.10361,7.27934 -6.47455,10.41944 -6.47455,3.1401 -10.74187,8.34982 -12.87554,15.62917 -1.10361,6.28021 0,13.55955 3.23728,19.76839 l 8.60823,14.55868 c 7.5046,12.48907 23.61741,17.6988 37.59658,9.34896 6.47456,-4.13923 17.21643,0 17.21643,10.41945 0,14.55868 11.8455,26.0486 26.85471,26.0486 h 17.21641 c 15.00921,0 27.95832,-11.48992 26.85473,-26.0486 0,-7.27934 6.47454,-11.48995 11.84548,-11.48995 2.13366,0 4.26732,1.0705 6.47456,2.06962 4.26731,2.06963 9.63826,3.14011 13.97915,3.14011 9.63827,0 18.24649,-5.20973 23.61743,-13.55955 l 6.47455,-14.55867 c 4.26734,-6.28023 5.37095,-12.48908 3.23729,-19.76841 -1.10363,-7.27935 -6.47456,-12.48906 -12.87554,-16.69965 -4.26733,-2.06963 -5.37095,-7.27934 -5.37095,-9.34896 -0.0736,-2.14097 1.03005,-7.35072 6.40098,-10.41945 z m -8.6082,46.88751 -8.60823,14.55869 c -2.13366,3.1401 -4.26733,4.13922 -8.60822,2.06961 -4.26732,-3.14012 -10.74188,-4.13925 -16.11282,-4.13925 -18.24648,0 -33.32926,14.55867 -33.32926,32.32884 0,3.14011 -2.13365,5.20972 -5.37095,5.20972 h -17.21641 c -3.2373,0 -5.37095,-2.06961 -5.37095,-6.28021 0,-17.6988 -15.00921,-32.32883 -33.32927,-32.32883 -5.37092,0 -11.84548,1.07048 -13.97916,4.13924 -2.13364,1.07049 -6.47455,1.07049 -7.5046,-2.06963 l -8.60821,-14.55868 c -1.10361,-1.07049 -1.10361,-3.1401 -1.10361,-4.13923 0,-2.06961 1.10361,-3.1401 3.23727,-4.13923 9.63827,-6.28022 16.11283,-16.69965 16.11283,-28.11822 0,-11.48994 -6.47456,-21.90939 -17.21645,-28.11825 -2.13365,0 -3.23727,-2.06961 -3.23727,-3.1401 0,-1.07048 0,-3.14012 1.10362,-4.13924 l 8.60822,-14.55867 c 2.13365,-3.14011 4.26732,-4.13923 8.6082,-2.06963 4.26733,3.14013 10.74189,4.13926 16.11285,4.13926 18.24646,0 33.32923,-14.55869 33.32923,-32.32884 0,-3.1401 2.13368,-5.20973 5.37094,-5.20973 h 17.21645 c 3.23727,0 5.37094,2.06963 5.37094,6.28021 0,8.34985 3.23727,16.69967 9.63827,22.90852 9.63825,9.34897 25.75106,11.48994 39.73023,4.13922 2.13366,-1.07048 6.47456,0 7.5046,2.06962 l 6.47455,15.62918 c 2.13365,3.1401 1.10361,6.28021 -2.13365,8.34982 -9.63826,6.28023 -16.11282,16.69966 -16.11282,28.11824 0,11.41856 6.47456,21.90939 17.21643,28.11823 2.13365,0 3.23729,2.06961 3.23729,3.1401 0,0.99912 0,3.06874 -1.03004,4.13924 z m -80.56411,-70.86652 c -19.35009,0 -35.46293,15.62919 -35.46293,34.39846 0,18.76926 16.11284,34.39843 35.46293,34.39843 20.38015,0 35.46291,-15.62917 35.46291,-34.39843 0,-18.76927 -16.11281,-34.39846 -35.46291,-34.39846 z m 0,46.88751 c -7.5046,0 -13.97917,-6.28021 -13.97917,-13.55954 0,-7.27935 6.47457,-13.55956 13.97917,-13.55956 8.60822,0 13.97915,6.28021 13.97915,13.55956 0,7.27933 -6.47456,13.55954 -13.97915,13.55954 z" />
</svg>
